<svg xmlns="http://www.w3.org/2000/svg" width="55" height="40" viewBox="0 0 55 40" fill="#18171a"><path d="M15.357 5.668l.452-1.61.402-1.283c.176-.604.251-.73.326-1.233.05-.428.1-.906-.201-1.258-.226-.277-.628-.327-.929-.252-.427.075-.577.881-.753 1.434-.402 1.334-3.012 9.209-3.389 10.593-.201.755-1.155 3.849-1.255 4.302-.075.176-.201.604-.301.629-.276-1.661-.351-2.239-.502-3.799-.1-1.258-.326-3.019-.402-4.202-.1-1.107-.025-2.692-.402-3.799-.201-.629-.728-1.333-1.356-1.459-1.28-.226-1.707 2.39-1.908 3.195L2.88 15.908c-.602 2.415-.904 4.428-1.682 6.793-.075.176-.201.327-.226.503-.075.378.402.629.653.73.402.176.728.101 1.105-.076.527-.226.879-1.359 1.054-1.862.628-1.988.879-3.397 1.28-5.233.452-2.164.879-4.353 1.255-6.542.075-.352.251-1.208.351-1.459.502 3.497.904 7.02 1.305 10.517.075.704.1 1.434.251 2.114.075.277.176.528.402.704.226.201.527.277.803.226.778-.075 1.381-.881 1.657-1.585.226-.629.377-1.208.552-1.862l2.385-8.756 1.331-4.453zm1.655 8.68c.151-.755.151-1.485-.1-2.113-.276-.679-2.385-1.812-2.335-.403.05 1.082-.527 2.768-.828 3.799l-1.28 3.749c-.276.855 0 2.214 1.029 2.466.653.176 1.28-.654 1.506-1.183.452-1.006.628-1.66 1.004-2.742.326-.931.803-2.365 1.004-3.573zm-.449-4.227l.075.075c.628.579 1.23-.126 1.556-.73.527-.981.828-1.661-.201-2.415-.703-.528-1.305.377-1.556.956-.276.679-.452 1.51.125 2.113zm16.391 18.694c-.075.025-.1.075-.1.101-.025.176.176-.101.1-.101zm-.63.906c.151-.101.226-.226.276-.453-.151.126-.251.277-.276.453z"/><path d="M45.46 16.839v-.025c-1.13.352-2.159 1.031-3.213 1.786-.351.252-1.305.931-1.381.805-.075-.101.1-.629.1-.755l.377-3.019c.1-1.082.151-2.189.075-3.271-.025-.453-.075-.956-.176-1.384-.1-.352-.653-.881-1.004-1.006-.402-.151-.653.101-.778.453l-.377 1.459c-.1.503-.151 1.082-.251 1.761l-.226 1.434c-.1.503-.126.478-.452.83l-1.481 1.686-1.08 1.308c-.326.352-.904 1.082-1.356 1.233-.125-.402 0-.78.101-1.182.351-1.183.828-2.315 1.28-3.447l1.004-2.44c.276-.654.728-1.535.577-2.29-.1-.528-.828-1.258-1.381-.83-.577.403-.828 1.359-1.18 1.988l-1.054 2.164-.025.025-1.682 1.912-1.933 2.214-.979 1.006c-.176.151-.753.679-1.004.528-.301-.176-.226-1.107-.201-1.333.025-.453.1-.906.201-1.334l.703-2.944 1.556-4.78c.151-.453.276-.931.527-1.334.201-.377.828-.528 1.205-.629.929-.277 1.456-.377 2.435-.579l2.109-.377c.502-.075.879-.151 1.155-.277 0-.252-.075-.453-.1-.554-.1-.101-.602-.126-.753-.126-.628-.025-1.004.075-1.556.101l-3.364.377c-.1.025-.351.101-.452.101-.075-.025.1-.453.126-.503.1-.403.226-.881.201-1.308-.075-.629-.552-1.812-1.356-1.484-.151.075-.276.201-.351.327-.1.151-.226.453-.276.604l-.402.981-.477 1.183c-.05.126-.125.453-.276.528-.1.101-.502.126-.728.176l-2.41.377c-.1.025-.904.126-.979.151.176-.528.402-1.384.352-1.661-.05-.252-.075-.403-.226-.654-.276-.579-.879-.83-1.13-.654-.351.226-.628.755-.879 1.183l-.678 1.208c-.452.83-.778 1.686-1.13 2.541-1.431 3.523-2.736 6.844-3.64 10.517-.527 2.088-1.054 4.202-1.331 6.366-.226 1.988-.377 4.428.452 6.265.828 1.736 2.586 2.088 3.966.654.577-.629.954-1.409 1.255-2.214 1.305-3.497 1.632-7.649.452-11.247a6.03 6.03 0 0 0-.276-.805c-.075-.101-.276-.704-.276-.704s.929-.201 1.13-.277c.929-.277 1.832-.554 2.736-.881-.025.176-.075.352-.1.554-.151.981-.226 2.189.276 3.095.377.629 1.356 1.132 2.058 1.258.778.176 1.381-.327 1.983-.805.176-.151 1.18-1.359 1.305-1.535.276-.327 1.18-1.661 1.682-2.239-.226.704-.427 1.434-.452 2.139s.201 1.56.778 1.937 1.331.503 1.983.227c1.481-.579 2.711-2.365 2.962-2.667.377-.528.301-.478.402-.478 0 .025-.452 2.592-.602 3.019-.1.377-.201.805-.402 1.132-.226.277-.577.503-.828.755-.326.277-.628.579-.929.881-2.46 2.365-4.368 5.158-6.05 8.102-.728 1.283-1.28 2.617-1.456 4.076-.075.704-.1 1.459.1 2.164.628 2.088 2.962 1.887 4.443.931 1.28-.83 2.184-2.088 2.987-3.346.879-1.359 1.531-2.843 2.159-4.353.527-1.308.979-2.793 1.381-4.177.577-1.988.979-3.447 1.331-5.259.075-.277.151-.73.151-.73s.402-.302.653-.453l1.983-1.384c.602-.453 2.058-1.485 2.435-1.686.151-.277.226-.805-.05-1.082zM21.135 25.62c-.025.352-.075.704-.126 1.032a21.87 21.87 0 0 1-.753 3.321c-.226.78-.653 1.988-1.305 2.214-.829-.629-.954-3.673-.628-5.51.276-1.585.577-3.17 1.004-4.73.151-.553.879-2.994 1.054-3.598.326.654.377 1.258.502 1.837.351 1.812.427 3.623.251 5.435zm6.15-16.052c-.176.528-1.105 3.321-1.381 4.378-.125.402-.226.83-.351 1.258-.402.176-.527.252-1.305.503l-1.732.528c-.402.101-1.155.277-1.531.327.628-2.013 1.33-3.699 2.033-5.661.427-1.157.502-1.208 1.004-2.516l.05.05c.351.277.728.201 1.155.101l1.431-.327c.452-.101 1.255-.201 1.255-.201s-.176.528-.276.755c-.176.302-.276.554-.351.805zm8.711 14.241c-.1.352-.452.503-.653.73.176-.277.351-.553.653-.73zm-.929 1.359c-.151.378-.502.579-.703.906.151-.352.402-.704.703-.906zm-.979 1.107c0 .201.025.201-.176.277-.025-.151.05-.201.176-.277zm2.485-1.912c-.552 1.862-.904 3.799-1.531 5.586-.628 1.736-1.331 3.548-2.209 5.183a12.03 12.03 0 0 1-1.431 2.114c-.377.453-1.105 1.308-1.782 1.182-.527-.101-.527-.755-.552-1.182-.1-1.484.879-3.296 1.531-4.604.201-.403.502-.78.728-1.183.101-.277.728-.931.653-1.208-.226.226-.452.503-.653.73.025-.352.326-.704.502-1.006.201-.377.552-.654.778-1.057.151-.277.151-.453.276-.654.075-.101.326-.453.402-.503.1-.025 0 .151.075.176.201-.101.226-.453.326-.629.1-.201.226-.453.377-.579.151-.151.326-.176.452-.327.151-.151.226-.327.377-.453s.326-.226.452-.352c.151-.176.201-.352.326-.554.226-.377.653-.579.904-.931a.43.43 0 0 1 0 .252z"/><path d="M34.057 27.305c-.1-.075-.276.403-.326.453-.151.176-.351.151-.201.453.075-.126.728-.78.527-.906zm20.936-11.9c.025-.101-.025-.101-.025-.151-.1-.327-.326-.503-.628-.453-1.582.252-3.163.629-4.619 1.283-.251.101-.226.101-.502-.075l-.728-.453-1.004-.528c-.276-.176-.025-.377.151-.528.678-.654 1.431-1.233 2.234-1.761.377-.226.753-.478 1.155-.654.352-.176.753-.377 1.155-.377a1.42 1.42 0 0 0 1.079-.579c.1-.201.125-.403.1-.629-.075-.377-.226-.755-.477-1.057-.176-.201-.402-.453-.653-.528-.326-.126-.678.025-.979.101-.351.101-.703.252-1.054.403-1.105.503-2.209 1.057-3.188 1.812-1.004.755-2.109 1.937-1.858 3.321a1.25 1.25 0 0 0 .201.503c.452.654 2.535 1.912 2.535 1.912l-.653.453c-.803.579-1.732 1.183-2.109 2.114-.326.805-.402 1.937.1 2.667.502.704 1.381.83 2.184.73.879-.126 1.757-.579 2.435-1.183.753-.629 1.155-1.459 1.205-2.441 0-.629-.1-1.183-.502-1.711-.075-.076-.1-.101-.176-.201a12.08 12.08 0 0 1 1.004-.654 8.59 8.59 0 0 1 2.736-.931c.201-.025.377-.025.527-.075.075-.025.176-.101.075-.201-.025-.025-.1-.075-.075-.101.075-.05.251.025.352-.025zm-6.401 5.46c-.527.352-1.682.956-2.309.579-.151-.101-.226-.227-.201-.403.05-.377.226-.679.452-.981.929-1.183 2.661-2.088 2.761-1.988.075.05.527.402.527.78v.025c0 .83-.602 1.585-1.23 1.988zM43.549 8.687l.201-.025c.075.075.301.352.075.855-.176.428-.377.654-.653 1.157.577.151 1.23-.352 1.632-.704.778-.704 1.305-1.937.828-2.969-.201-.428-.552-.755-1.029-.83-.527-.075-1.23.327-1.581.73-.477.554-.326 1.761.527 1.786z"/></svg>