<svg xmlns="http://www.w3.org/2000/svg" width="119" height="26" viewBox="0 0 119 26" fill="none"><g clip-path="url(#A)" fill="#18171a"><path d="M41.068 18.686l6.437-10.354h-5.72V6.039h10.044v.346l-6.306 10.354h6.079v2.312H41.068v-.364zM55.362 6.039h8.797v2.293h-5.758v3.038h4.607v2.147h-4.607v3.239h6.059v2.293h-9.099V6.039zm12.81 0h4.833c.793 0 1.51.079 2.152.237s1.189.4 1.643.728.799.74 1.038 1.238c.252.497.378 1.08.378 1.746v.073c0 .497-.069.934-.207 1.31s-.334.704-.585.982a3.57 3.57 0 0 1-.888.711 4.82 4.82 0 0 1-1.094.455l3.568 5.531h-3.247l-3.228-5.022h-1.322v5.022h-3.039V6.039zm4.757 5.987c.769 0 1.341-.158 1.718-.473.391-.315.585-.782.585-1.402v-.071c0-.668-.201-1.129-.604-1.384-.39-.267-.957-.4-1.699-.4h-1.718v3.73h1.718-.001zm9.568-5.987h3.077V19.05h-3.077V6.039zm13.915 10.862c.566 0 1.076-.103 1.529-.309a3.36 3.36 0 0 0 1.189-.873c.314-.363.561-.812.737-1.346.183-.578.272-1.179.264-1.783v-.146c0-.631-.088-1.207-.264-1.729a3.88 3.88 0 0 0-.718-1.347 3.36 3.36 0 0 0-1.189-.873 3.89 3.89 0 0 0-1.586-.309c-.592 0-1.12.103-1.586.309-.454.195-.843.473-1.171.837-.327.375-.579.83-.755 1.364-.163.521-.245 1.11-.245 1.765v.146c0 .667.094 1.268.283 1.802.189.521.453.964.793 1.329a3.37 3.37 0 0 0 1.189.873c.484.198 1.004.297 1.529.291v-.001zm-.056 2.348c-1.057 0-2.014-.163-2.87-.491-.855-.339-1.579-.807-2.171-1.402-.613-.594-1.089-1.307-1.398-2.092a7 7 0 0 1-.49-2.638v-.146c0-.97.17-1.862.51-2.674.335-.789.837-1.502 1.472-2.093.63-.591 1.374-1.055 2.19-1.365.843-.328 1.768-.491 2.775-.491 1.02 0 1.951.158 2.794.473.855.315 1.592.759 2.208 1.329a6.22 6.22 0 0 1 1.416 2.074c.353.801.529 1.692.529 2.675v.146c0 .971-.17 1.868-.51 2.693-.312.789-.787 1.507-1.397 2.111-.623.607-1.369 1.084-2.19 1.402-.856.328-1.812.491-2.869.491zm10.747-13.211h3.549l5.135 8.571V6.038h2.719V19.05h-3.059l-5.625-9.262v9.262h-2.719V6.039z"/><path fill-rule="evenodd" d="M4.665.5h17.494c2.297 0 4.16 1.804 4.16 4.029v16.943c0 2.225-1.862 4.029-4.16 4.029H4.665c-2.297 0-4.16-1.804-4.16-4.029V4.529C.506 2.304 2.368.5 4.665.5zm8.739 14.878l-1.735 2.41c-.038.049 0 .043 0 .043h5.64a.16.16 0 0 1 .104.037l2.575 2.196c.015.013.028.029.036.047s.013.037.013.057c0 .079-.069.141-.154.141H7.254c-.23 0-.437-.19-.437-.402 0 0-.079-.351.114-.646l2.842-3.869 3.631-.013zm-.016-4.81l1.765-2.37h-.001c.066-.088 0-.083 0-.083l-3.472-.013H9.318c-.041 0-.081-.015-.109-.042L6.844 5.894c-.096-.088-.028-.238.109-.238h12.642c.23 0 .438.188.438.397 0 0 .035.214-.105.415l-2.633 3.614-.368.505-3.537-.019z"/></g><defs><clipPath id="A"><path fill="#fff" transform="translate(.506 .5)" d="M0 0h118v25H0z"/></clipPath></defs></svg>